<svg xmlns="http://www.w3.org/2000/svg" viewBox="0 0 540 540" width="540" height="540" font-family="-apple-system, BlinkMacSystemFont, Segoe UI, Roboto, sans-serif">
  <rect width="540" height="540" fill="#ffffff"/>
  <g fill="rgba(17,17,17,0.05)">
    <circle cx="12" cy="12" r="0.9"/>
    <circle cx="12" cy="36" r="0.9"/>
    <circle cx="12" cy="60" r="0.9"/>
    <circle cx="12" cy="84" r="0.9"/>
    <circle cx="12" cy="108" r="0.9"/>
    <circle cx="12" cy="132" r="0.9"/>
    <circle cx="12" cy="156" r="0.9"/>
    <circle cx="12" cy="180" r="0.9"/>
    <circle cx="12" cy="204" r="0.9"/>
    <circle cx="12" cy="228" r="0.9"/>
    <circle cx="12" cy="252" r="0.9"/>
    <circle cx="12" cy="276" r="0.9"/>
    <circle cx="12" cy="300" r="0.9"/>
    <circle cx="12" cy="324" r="0.9"/>
    <circle cx="12" cy="348" r="0.9"/>
    <circle cx="12" cy="372" r="0.9"/>
    <circle cx="12" cy="396" r="0.9"/>
    <circle cx="12" cy="420" r="0.9"/>
    <circle cx="12" cy="444" r="0.9"/>
    <circle cx="12" cy="468" r="0.9"/>
    <circle cx="12" cy="492" r="0.9"/>
    <circle cx="12" cy="516" r="0.9"/>
    <circle cx="36" cy="12" r="0.9"/>
    <circle cx="36" cy="36" r="0.9"/>
    <circle cx="36" cy="60" r="0.9"/>
    <circle cx="36" cy="84" r="0.9"/>
    <circle cx="36" cy="108" r="0.9"/>
    <circle cx="36" cy="132" r="0.9"/>
    <circle cx="36" cy="156" r="0.9"/>
    <circle cx="36" cy="180" r="0.9"/>
    <circle cx="36" cy="204" r="0.9"/>
    <circle cx="36" cy="228" r="0.9"/>
    <circle cx="36" cy="252" r="0.9"/>
    <circle cx="36" cy="276" r="0.9"/>
    <circle cx="36" cy="300" r="0.9"/>
    <circle cx="36" cy="324" r="0.9"/>
    <circle cx="36" cy="348" r="0.9"/>
    <circle cx="36" cy="372" r="0.9"/>
    <circle cx="36" cy="396" r="0.9"/>
    <circle cx="36" cy="420" r="0.9"/>
    <circle cx="36" cy="444" r="0.9"/>
    <circle cx="36" cy="468" r="0.9"/>
    <circle cx="36" cy="492" r="0.9"/>
    <circle cx="36" cy="516" r="0.9"/>
    <circle cx="60" cy="12" r="0.9"/>
    <circle cx="60" cy="36" r="0.9"/>
    <circle cx="60" cy="60" r="0.9"/>
    <circle cx="60" cy="84" r="0.9"/>
    <circle cx="60" cy="108" r="0.9"/>
    <circle cx="60" cy="132" r="0.9"/>
    <circle cx="60" cy="156" r="0.9"/>
    <circle cx="60" cy="180" r="0.9"/>
    <circle cx="60" cy="204" r="0.9"/>
    <circle cx="60" cy="228" r="0.9"/>
    <circle cx="60" cy="252" r="0.9"/>
    <circle cx="60" cy="276" r="0.9"/>
    <circle cx="60" cy="300" r="0.9"/>
    <circle cx="60" cy="324" r="0.9"/>
    <circle cx="60" cy="348" r="0.9"/>
    <circle cx="60" cy="372" r="0.9"/>
    <circle cx="60" cy="396" r="0.9"/>
    <circle cx="60" cy="420" r="0.9"/>
    <circle cx="60" cy="444" r="0.9"/>
    <circle cx="60" cy="468" r="0.9"/>
    <circle cx="60" cy="492" r="0.9"/>
    <circle cx="60" cy="516" r="0.9"/>
    <circle cx="84" cy="12" r="0.9"/>
    <circle cx="84" cy="36" r="0.9"/>
    <circle cx="84" cy="60" r="0.9"/>
    <circle cx="84" cy="84" r="0.9"/>
    <circle cx="84" cy="108" r="0.9"/>
    <circle cx="84" cy="132" r="0.9"/>
    <circle cx="84" cy="156" r="0.9"/>
    <circle cx="84" cy="180" r="0.9"/>
    <circle cx="84" cy="204" r="0.9"/>
    <circle cx="84" cy="228" r="0.9"/>
    <circle cx="84" cy="252" r="0.9"/>
    <circle cx="84" cy="276" r="0.9"/>
    <circle cx="84" cy="300" r="0.9"/>
    <circle cx="84" cy="324" r="0.9"/>
    <circle cx="84" cy="348" r="0.9"/>
    <circle cx="84" cy="372" r="0.9"/>
    <circle cx="84" cy="396" r="0.9"/>
    <circle cx="84" cy="420" r="0.9"/>
    <circle cx="84" cy="444" r="0.9"/>
    <circle cx="84" cy="468" r="0.9"/>
    <circle cx="84" cy="492" r="0.9"/>
    <circle cx="84" cy="516" r="0.9"/>
    <circle cx="108" cy="12" r="0.9"/>
    <circle cx="108" cy="36" r="0.9"/>
    <circle cx="108" cy="60" r="0.9"/>
    <circle cx="108" cy="84" r="0.9"/>
    <circle cx="108" cy="108" r="0.9"/>
    <circle cx="108" cy="132" r="0.9"/>
    <circle cx="108" cy="156" r="0.9"/>
    <circle cx="108" cy="180" r="0.9"/>
    <circle cx="108" cy="204" r="0.9"/>
    <circle cx="108" cy="228" r="0.9"/>
    <circle cx="108" cy="252" r="0.9"/>
    <circle cx="108" cy="276" r="0.9"/>
    <circle cx="108" cy="300" r="0.9"/>
    <circle cx="108" cy="324" r="0.9"/>
    <circle cx="108" cy="348" r="0.9"/>
    <circle cx="108" cy="372" r="0.9"/>
    <circle cx="108" cy="396" r="0.9"/>
    <circle cx="108" cy="420" r="0.9"/>
    <circle cx="108" cy="444" r="0.9"/>
    <circle cx="108" cy="468" r="0.9"/>
    <circle cx="108" cy="492" r="0.9"/>
    <circle cx="108" cy="516" r="0.9"/>
    <circle cx="132" cy="12" r="0.9"/>
    <circle cx="132" cy="36" r="0.9"/>
    <circle cx="132" cy="60" r="0.9"/>
    <circle cx="132" cy="84" r="0.9"/>
    <circle cx="132" cy="108" r="0.9"/>
    <circle cx="132" cy="132" r="0.9"/>
    <circle cx="132" cy="156" r="0.9"/>
    <circle cx="132" cy="180" r="0.9"/>
    <circle cx="132" cy="204" r="0.9"/>
    <circle cx="132" cy="228" r="0.9"/>
    <circle cx="132" cy="252" r="0.9"/>
    <circle cx="132" cy="276" r="0.9"/>
    <circle cx="132" cy="300" r="0.9"/>
    <circle cx="132" cy="324" r="0.9"/>
    <circle cx="132" cy="348" r="0.9"/>
    <circle cx="132" cy="372" r="0.9"/>
    <circle cx="132" cy="396" r="0.9"/>
    <circle cx="132" cy="420" r="0.9"/>
    <circle cx="132" cy="444" r="0.9"/>
    <circle cx="132" cy="468" r="0.9"/>
    <circle cx="132" cy="492" r="0.9"/>
    <circle cx="132" cy="516" r="0.9"/>
    <circle cx="156" cy="12" r="0.9"/>
    <circle cx="156" cy="36" r="0.9"/>
    <circle cx="156" cy="60" r="0.9"/>
    <circle cx="156" cy="84" r="0.9"/>
    <circle cx="156" cy="108" r="0.9"/>
    <circle cx="156" cy="132" r="0.9"/>
    <circle cx="156" cy="156" r="0.9"/>
    <circle cx="156" cy="180" r="0.9"/>
    <circle cx="156" cy="204" r="0.9"/>
    <circle cx="156" cy="228" r="0.9"/>
    <circle cx="156" cy="252" r="0.9"/>
    <circle cx="156" cy="276" r="0.9"/>
    <circle cx="156" cy="300" r="0.9"/>
    <circle cx="156" cy="324" r="0.9"/>
    <circle cx="156" cy="348" r="0.9"/>
    <circle cx="156" cy="372" r="0.9"/>
    <circle cx="156" cy="396" r="0.9"/>
    <circle cx="156" cy="420" r="0.9"/>
    <circle cx="156" cy="444" r="0.9"/>
    <circle cx="156" cy="468" r="0.9"/>
    <circle cx="156" cy="492" r="0.9"/>
    <circle cx="156" cy="516" r="0.9"/>
    <circle cx="180" cy="12" r="0.9"/>
    <circle cx="180" cy="36" r="0.9"/>
    <circle cx="180" cy="60" r="0.9"/>
    <circle cx="180" cy="84" r="0.9"/>
    <circle cx="180" cy="108" r="0.9"/>
    <circle cx="180" cy="132" r="0.9"/>
    <circle cx="180" cy="156" r="0.9"/>
    <circle cx="180" cy="180" r="0.9"/>
    <circle cx="180" cy="204" r="0.9"/>
    <circle cx="180" cy="228" r="0.9"/>
    <circle cx="180" cy="252" r="0.9"/>
    <circle cx="180" cy="276" r="0.9"/>
    <circle cx="180" cy="300" r="0.9"/>
    <circle cx="180" cy="324" r="0.9"/>
    <circle cx="180" cy="348" r="0.9"/>
    <circle cx="180" cy="372" r="0.9"/>
    <circle cx="180" cy="396" r="0.9"/>
    <circle cx="180" cy="420" r="0.9"/>
    <circle cx="180" cy="444" r="0.9"/>
    <circle cx="180" cy="468" r="0.9"/>
    <circle cx="180" cy="492" r="0.9"/>
    <circle cx="180" cy="516" r="0.9"/>
    <circle cx="204" cy="12" r="0.9"/>
    <circle cx="204" cy="36" r="0.9"/>
    <circle cx="204" cy="60" r="0.9"/>
    <circle cx="204" cy="84" r="0.9"/>
    <circle cx="204" cy="108" r="0.9"/>
    <circle cx="204" cy="132" r="0.9"/>
    <circle cx="204" cy="156" r="0.9"/>
    <circle cx="204" cy="180" r="0.9"/>
    <circle cx="204" cy="204" r="0.9"/>
    <circle cx="204" cy="228" r="0.9"/>
    <circle cx="204" cy="252" r="0.9"/>
    <circle cx="204" cy="276" r="0.9"/>
    <circle cx="204" cy="300" r="0.9"/>
    <circle cx="204" cy="324" r="0.9"/>
    <circle cx="204" cy="348" r="0.9"/>
    <circle cx="204" cy="372" r="0.9"/>
    <circle cx="204" cy="396" r="0.9"/>
    <circle cx="204" cy="420" r="0.9"/>
    <circle cx="204" cy="444" r="0.9"/>
    <circle cx="204" cy="468" r="0.9"/>
    <circle cx="204" cy="492" r="0.9"/>
    <circle cx="204" cy="516" r="0.9"/>
    <circle cx="228" cy="12" r="0.9"/>
    <circle cx="228" cy="36" r="0.9"/>
    <circle cx="228" cy="60" r="0.9"/>
    <circle cx="228" cy="84" r="0.9"/>
    <circle cx="228" cy="108" r="0.9"/>
    <circle cx="228" cy="132" r="0.9"/>
    <circle cx="228" cy="156" r="0.9"/>
    <circle cx="228" cy="180" r="0.9"/>
    <circle cx="228" cy="204" r="0.9"/>
    <circle cx="228" cy="228" r="0.9"/>
    <circle cx="228" cy="252" r="0.9"/>
    <circle cx="228" cy="276" r="0.9"/>
    <circle cx="228" cy="300" r="0.9"/>
    <circle cx="228" cy="324" r="0.9"/>
    <circle cx="228" cy="348" r="0.9"/>
    <circle cx="228" cy="372" r="0.9"/>
    <circle cx="228" cy="396" r="0.9"/>
    <circle cx="228" cy="420" r="0.9"/>
    <circle cx="228" cy="444" r="0.9"/>
    <circle cx="228" cy="468" r="0.9"/>
    <circle cx="228" cy="492" r="0.9"/>
    <circle cx="228" cy="516" r="0.9"/>
    <circle cx="252" cy="12" r="0.9"/>
    <circle cx="252" cy="36" r="0.9"/>
    <circle cx="252" cy="60" r="0.9"/>
    <circle cx="252" cy="84" r="0.9"/>
    <circle cx="252" cy="108" r="0.9"/>
    <circle cx="252" cy="132" r="0.9"/>
    <circle cx="252" cy="156" r="0.9"/>
    <circle cx="252" cy="180" r="0.9"/>
    <circle cx="252" cy="204" r="0.9"/>
    <circle cx="252" cy="228" r="0.9"/>
    <circle cx="252" cy="252" r="0.9"/>
    <circle cx="252" cy="276" r="0.9"/>
    <circle cx="252" cy="300" r="0.9"/>
    <circle cx="252" cy="324" r="0.9"/>
    <circle cx="252" cy="348" r="0.9"/>
    <circle cx="252" cy="372" r="0.9"/>
    <circle cx="252" cy="396" r="0.9"/>
    <circle cx="252" cy="420" r="0.9"/>
    <circle cx="252" cy="444" r="0.9"/>
    <circle cx="252" cy="468" r="0.9"/>
    <circle cx="252" cy="492" r="0.9"/>
    <circle cx="252" cy="516" r="0.9"/>
    <circle cx="276" cy="12" r="0.9"/>
    <circle cx="276" cy="36" r="0.9"/>
    <circle cx="276" cy="60" r="0.9"/>
    <circle cx="276" cy="84" r="0.9"/>
    <circle cx="276" cy="108" r="0.9"/>
    <circle cx="276" cy="132" r="0.9"/>
    <circle cx="276" cy="156" r="0.9"/>
    <circle cx="276" cy="180" r="0.9"/>
    <circle cx="276" cy="204" r="0.9"/>
    <circle cx="276" cy="228" r="0.9"/>
    <circle cx="276" cy="252" r="0.9"/>
    <circle cx="276" cy="276" r="0.9"/>
    <circle cx="276" cy="300" r="0.9"/>
    <circle cx="276" cy="324" r="0.9"/>
    <circle cx="276" cy="348" r="0.9"/>
    <circle cx="276" cy="372" r="0.9"/>
    <circle cx="276" cy="396" r="0.9"/>
    <circle cx="276" cy="420" r="0.9"/>
    <circle cx="276" cy="444" r="0.9"/>
    <circle cx="276" cy="468" r="0.9"/>
    <circle cx="276" cy="492" r="0.9"/>
    <circle cx="276" cy="516" r="0.9"/>
    <circle cx="300" cy="12" r="0.9"/>
    <circle cx="300" cy="36" r="0.9"/>
    <circle cx="300" cy="60" r="0.9"/>
    <circle cx="300" cy="84" r="0.9"/>
    <circle cx="300" cy="108" r="0.9"/>
    <circle cx="300" cy="132" r="0.9"/>
    <circle cx="300" cy="156" r="0.9"/>
    <circle cx="300" cy="180" r="0.9"/>
    <circle cx="300" cy="204" r="0.9"/>
    <circle cx="300" cy="228" r="0.9"/>
    <circle cx="300" cy="252" r="0.9"/>
    <circle cx="300" cy="276" r="0.9"/>
    <circle cx="300" cy="300" r="0.9"/>
    <circle cx="300" cy="324" r="0.9"/>
    <circle cx="300" cy="348" r="0.9"/>
    <circle cx="300" cy="372" r="0.9"/>
    <circle cx="300" cy="396" r="0.9"/>
    <circle cx="300" cy="420" r="0.9"/>
    <circle cx="300" cy="444" r="0.9"/>
    <circle cx="300" cy="468" r="0.9"/>
    <circle cx="300" cy="492" r="0.9"/>
    <circle cx="300" cy="516" r="0.9"/>
    <circle cx="324" cy="12" r="0.9"/>
    <circle cx="324" cy="36" r="0.9"/>
    <circle cx="324" cy="60" r="0.9"/>
    <circle cx="324" cy="84" r="0.9"/>
    <circle cx="324" cy="108" r="0.9"/>
    <circle cx="324" cy="132" r="0.9"/>
    <circle cx="324" cy="156" r="0.9"/>
    <circle cx="324" cy="180" r="0.9"/>
    <circle cx="324" cy="204" r="0.9"/>
    <circle cx="324" cy="228" r="0.9"/>
    <circle cx="324" cy="252" r="0.9"/>
    <circle cx="324" cy="276" r="0.9"/>
    <circle cx="324" cy="300" r="0.9"/>
    <circle cx="324" cy="324" r="0.9"/>
    <circle cx="324" cy="348" r="0.9"/>
    <circle cx="324" cy="372" r="0.9"/>
    <circle cx="324" cy="396" r="0.9"/>
    <circle cx="324" cy="420" r="0.9"/>
    <circle cx="324" cy="444" r="0.9"/>
    <circle cx="324" cy="468" r="0.9"/>
    <circle cx="324" cy="492" r="0.9"/>
    <circle cx="324" cy="516" r="0.9"/>
    <circle cx="348" cy="12" r="0.9"/>
    <circle cx="348" cy="36" r="0.9"/>
    <circle cx="348" cy="60" r="0.9"/>
    <circle cx="348" cy="84" r="0.9"/>
    <circle cx="348" cy="108" r="0.9"/>
    <circle cx="348" cy="132" r="0.9"/>
    <circle cx="348" cy="156" r="0.9"/>
    <circle cx="348" cy="180" r="0.9"/>
    <circle cx="348" cy="204" r="0.9"/>
    <circle cx="348" cy="228" r="0.9"/>
    <circle cx="348" cy="252" r="0.9"/>
    <circle cx="348" cy="276" r="0.9"/>
    <circle cx="348" cy="300" r="0.9"/>
    <circle cx="348" cy="324" r="0.9"/>
    <circle cx="348" cy="348" r="0.9"/>
    <circle cx="348" cy="372" r="0.9"/>
    <circle cx="348" cy="396" r="0.9"/>
    <circle cx="348" cy="420" r="0.9"/>
    <circle cx="348" cy="444" r="0.9"/>
    <circle cx="348" cy="468" r="0.9"/>
    <circle cx="348" cy="492" r="0.9"/>
    <circle cx="348" cy="516" r="0.9"/>
    <circle cx="372" cy="12" r="0.9"/>
    <circle cx="372" cy="36" r="0.9"/>
    <circle cx="372" cy="60" r="0.9"/>
    <circle cx="372" cy="84" r="0.9"/>
    <circle cx="372" cy="108" r="0.9"/>
    <circle cx="372" cy="132" r="0.9"/>
    <circle cx="372" cy="156" r="0.9"/>
    <circle cx="372" cy="180" r="0.9"/>
    <circle cx="372" cy="204" r="0.9"/>
    <circle cx="372" cy="228" r="0.9"/>
    <circle cx="372" cy="252" r="0.9"/>
    <circle cx="372" cy="276" r="0.9"/>
    <circle cx="372" cy="300" r="0.9"/>
    <circle cx="372" cy="324" r="0.9"/>
    <circle cx="372" cy="348" r="0.9"/>
    <circle cx="372" cy="372" r="0.9"/>
    <circle cx="372" cy="396" r="0.9"/>
    <circle cx="372" cy="420" r="0.9"/>
    <circle cx="372" cy="444" r="0.9"/>
    <circle cx="372" cy="468" r="0.9"/>
    <circle cx="372" cy="492" r="0.9"/>
    <circle cx="372" cy="516" r="0.9"/>
    <circle cx="396" cy="12" r="0.9"/>
    <circle cx="396" cy="36" r="0.9"/>
    <circle cx="396" cy="60" r="0.9"/>
    <circle cx="396" cy="84" r="0.9"/>
    <circle cx="396" cy="108" r="0.9"/>
    <circle cx="396" cy="132" r="0.9"/>
    <circle cx="396" cy="156" r="0.9"/>
    <circle cx="396" cy="180" r="0.9"/>
    <circle cx="396" cy="204" r="0.9"/>
    <circle cx="396" cy="228" r="0.9"/>
    <circle cx="396" cy="252" r="0.9"/>
    <circle cx="396" cy="276" r="0.9"/>
    <circle cx="396" cy="300" r="0.9"/>
    <circle cx="396" cy="324" r="0.9"/>
    <circle cx="396" cy="348" r="0.9"/>
    <circle cx="396" cy="372" r="0.9"/>
    <circle cx="396" cy="396" r="0.9"/>
    <circle cx="396" cy="420" r="0.9"/>
    <circle cx="396" cy="444" r="0.9"/>
    <circle cx="396" cy="468" r="0.9"/>
    <circle cx="396" cy="492" r="0.9"/>
    <circle cx="396" cy="516" r="0.9"/>
    <circle cx="420" cy="12" r="0.9"/>
    <circle cx="420" cy="36" r="0.9"/>
    <circle cx="420" cy="60" r="0.9"/>
    <circle cx="420" cy="84" r="0.9"/>
    <circle cx="420" cy="108" r="0.9"/>
    <circle cx="420" cy="132" r="0.9"/>
    <circle cx="420" cy="156" r="0.9"/>
    <circle cx="420" cy="180" r="0.9"/>
    <circle cx="420" cy="204" r="0.9"/>
    <circle cx="420" cy="228" r="0.9"/>
    <circle cx="420" cy="252" r="0.9"/>
    <circle cx="420" cy="276" r="0.9"/>
    <circle cx="420" cy="300" r="0.9"/>
    <circle cx="420" cy="324" r="0.9"/>
    <circle cx="420" cy="348" r="0.9"/>
    <circle cx="420" cy="372" r="0.9"/>
    <circle cx="420" cy="396" r="0.9"/>
    <circle cx="420" cy="420" r="0.9"/>
    <circle cx="420" cy="444" r="0.9"/>
    <circle cx="420" cy="468" r="0.9"/>
    <circle cx="420" cy="492" r="0.9"/>
    <circle cx="420" cy="516" r="0.9"/>
    <circle cx="444" cy="12" r="0.9"/>
    <circle cx="444" cy="36" r="0.9"/>
    <circle cx="444" cy="60" r="0.9"/>
    <circle cx="444" cy="84" r="0.9"/>
    <circle cx="444" cy="108" r="0.9"/>
    <circle cx="444" cy="132" r="0.9"/>
    <circle cx="444" cy="156" r="0.9"/>
    <circle cx="444" cy="180" r="0.9"/>
    <circle cx="444" cy="204" r="0.9"/>
    <circle cx="444" cy="228" r="0.9"/>
    <circle cx="444" cy="252" r="0.9"/>
    <circle cx="444" cy="276" r="0.9"/>
    <circle cx="444" cy="300" r="0.9"/>
    <circle cx="444" cy="324" r="0.9"/>
    <circle cx="444" cy="348" r="0.9"/>
    <circle cx="444" cy="372" r="0.9"/>
    <circle cx="444" cy="396" r="0.9"/>
    <circle cx="444" cy="420" r="0.9"/>
    <circle cx="444" cy="444" r="0.9"/>
    <circle cx="444" cy="468" r="0.9"/>
    <circle cx="444" cy="492" r="0.9"/>
    <circle cx="444" cy="516" r="0.9"/>
    <circle cx="468" cy="12" r="0.9"/>
    <circle cx="468" cy="36" r="0.9"/>
    <circle cx="468" cy="60" r="0.9"/>
    <circle cx="468" cy="84" r="0.9"/>
    <circle cx="468" cy="108" r="0.9"/>
    <circle cx="468" cy="132" r="0.9"/>
    <circle cx="468" cy="156" r="0.9"/>
    <circle cx="468" cy="180" r="0.9"/>
    <circle cx="468" cy="204" r="0.9"/>
    <circle cx="468" cy="228" r="0.9"/>
    <circle cx="468" cy="252" r="0.9"/>
    <circle cx="468" cy="276" r="0.9"/>
    <circle cx="468" cy="300" r="0.9"/>
    <circle cx="468" cy="324" r="0.9"/>
    <circle cx="468" cy="348" r="0.9"/>
    <circle cx="468" cy="372" r="0.9"/>
    <circle cx="468" cy="396" r="0.9"/>
    <circle cx="468" cy="420" r="0.9"/>
    <circle cx="468" cy="444" r="0.9"/>
    <circle cx="468" cy="468" r="0.9"/>
    <circle cx="468" cy="492" r="0.9"/>
    <circle cx="468" cy="516" r="0.9"/>
    <circle cx="492" cy="12" r="0.9"/>
    <circle cx="492" cy="36" r="0.9"/>
    <circle cx="492" cy="60" r="0.9"/>
    <circle cx="492" cy="84" r="0.9"/>
    <circle cx="492" cy="108" r="0.9"/>
    <circle cx="492" cy="132" r="0.9"/>
    <circle cx="492" cy="156" r="0.9"/>
    <circle cx="492" cy="180" r="0.9"/>
    <circle cx="492" cy="204" r="0.9"/>
    <circle cx="492" cy="228" r="0.9"/>
    <circle cx="492" cy="252" r="0.9"/>
    <circle cx="492" cy="276" r="0.9"/>
    <circle cx="492" cy="300" r="0.9"/>
    <circle cx="492" cy="324" r="0.9"/>
    <circle cx="492" cy="348" r="0.9"/>
    <circle cx="492" cy="372" r="0.9"/>
    <circle cx="492" cy="396" r="0.9"/>
    <circle cx="492" cy="420" r="0.9"/>
    <circle cx="492" cy="444" r="0.9"/>
    <circle cx="492" cy="468" r="0.9"/>
    <circle cx="492" cy="492" r="0.9"/>
    <circle cx="492" cy="516" r="0.9"/>
    <circle cx="516" cy="12" r="0.9"/>
    <circle cx="516" cy="36" r="0.9"/>
    <circle cx="516" cy="60" r="0.9"/>
    <circle cx="516" cy="84" r="0.9"/>
    <circle cx="516" cy="108" r="0.9"/>
    <circle cx="516" cy="132" r="0.9"/>
    <circle cx="516" cy="156" r="0.9"/>
    <circle cx="516" cy="180" r="0.9"/>
    <circle cx="516" cy="204" r="0.9"/>
    <circle cx="516" cy="228" r="0.9"/>
    <circle cx="516" cy="252" r="0.9"/>
    <circle cx="516" cy="276" r="0.9"/>
    <circle cx="516" cy="300" r="0.9"/>
    <circle cx="516" cy="324" r="0.9"/>
    <circle cx="516" cy="348" r="0.9"/>
    <circle cx="516" cy="372" r="0.9"/>
    <circle cx="516" cy="396" r="0.9"/>
    <circle cx="516" cy="420" r="0.9"/>
    <circle cx="516" cy="444" r="0.9"/>
    <circle cx="516" cy="468" r="0.9"/>
    <circle cx="516" cy="492" r="0.9"/>
    <circle cx="516" cy="516" r="0.9"/>
  </g>
  <g stroke="#e4e4e8" stroke-width="0.8">
    <line x1="270.00" y1="75.60" x2="226.79" y2="84.64"/>
    <line x1="270.00" y1="75.60" x2="262.55" y2="133.56"/>
    <line x1="270.00" y1="75.60" x2="277.16" y2="93.68"/>
    <line x1="270.00" y1="75.60" x2="241.50" y2="152.68"/>
    <line x1="226.79" y1="84.64" x2="158.79" y2="111.77"/>
    <line x1="226.79" y1="84.64" x2="241.50" y2="152.68"/>
    <line x1="226.79" y1="84.64" x2="180.29" y2="150.72"/>
    <line x1="277.16" y1="93.68" x2="262.55" y2="133.56"/>
    <line x1="277.16" y1="93.68" x2="241.50" y2="152.68"/>
    <line x1="277.16" y1="93.68" x2="203.84" y2="138.89"/>
    <line x1="330.27" y1="102.73" x2="412.12" y2="147.93"/>
    <line x1="330.27" y1="102.73" x2="270.00" y2="75.60"/>
    <line x1="330.27" y1="102.73" x2="320.77" y2="175.06"/>
    <line x1="330.27" y1="102.73" x2="235.03" y2="129.85"/>
    <line x1="158.79" y1="111.77" x2="180.29" y2="150.72"/>
    <line x1="158.79" y1="111.77" x2="241.50" y2="152.68"/>
    <line x1="158.79" y1="111.77" x2="173.83" y2="200.58"/>
    <line x1="375.16" y1="120.81" x2="381.56" y2="165.47"/>
    <line x1="375.16" y1="120.81" x2="350.63" y2="190.69"/>
    <line x1="375.16" y1="120.81" x2="339.62" y2="166.02"/>
    <line x1="375.16" y1="120.81" x2="277.16" y2="93.68"/>
    <line x1="235.03" y1="129.85" x2="297.06" y2="203.72"/>
    <line x1="235.03" y1="129.85" x2="226.79" y2="84.64"/>
    <line x1="235.03" y1="129.85" x2="294.15" y2="207.76"/>
    <line x1="235.03" y1="129.85" x2="320.77" y2="175.06"/>
    <line x1="203.84" y1="138.89" x2="229.37" y2="186.21"/>
    <line x1="203.84" y1="138.89" x2="262.55" y2="133.56"/>
    <line x1="203.84" y1="138.89" x2="246.19" y2="211.23"/>
    <line x1="412.12" y1="147.93" x2="381.56" y2="165.47"/>
    <line x1="412.12" y1="147.93" x2="413.30" y2="216.53"/>
    <line x1="412.12" y1="147.93" x2="413.70" y2="220.27"/>
    <line x1="123.80" y1="156.98" x2="173.83" y2="200.58"/>
    <line x1="123.80" y1="156.98" x2="180.29" y2="150.72"/>
    <line x1="123.80" y1="156.98" x2="158.79" y2="111.77"/>
    <line x1="123.80" y1="156.98" x2="80.07" y2="229.31"/>
    <line x1="339.62" y1="166.02" x2="287.93" y2="200.35"/>
    <line x1="339.62" y1="166.02" x2="338.14" y2="247.88"/>
    <line x1="339.62" y1="166.02" x2="350.63" y2="190.69"/>
    <line x1="339.62" y1="166.02" x2="301.84" y2="234.15"/>
    <line x1="320.77" y1="175.06" x2="297.06" y2="203.72"/>
    <line x1="320.77" y1="175.06" x2="294.15" y2="207.76"/>
    <line x1="320.77" y1="175.06" x2="261.08" y2="247.40"/>
    <line x1="119.11" y1="184.10" x2="157.45" y2="243.98"/>
    <line x1="119.11" y1="184.10" x2="175.62" y2="241.75"/>
    <line x1="119.11" y1="184.10" x2="145.75" y2="256.44"/>
    <line x1="119.11" y1="184.10" x2="180.29" y2="150.72"/>
    <line x1="444.40" y1="193.14" x2="413.30" y2="216.53"/>
    <line x1="444.40" y1="193.14" x2="381.56" y2="165.47"/>
    <line x1="444.40" y1="193.14" x2="398.52" y2="257.55"/>
    <line x1="444.40" y1="193.14" x2="462.61" y2="265.48"/>
    <line x1="165.22" y1="202.19" x2="232.51" y2="242.43"/>
    <line x1="165.22" y1="202.19" x2="110.47" y2="274.52"/>
    <line x1="165.22" y1="202.19" x2="235.03" y2="129.85"/>
    <line x1="165.22" y1="202.19" x2="123.80" y2="156.98"/>
    <line x1="246.19" y1="211.23" x2="244.45" y2="249.48"/>
    <line x1="246.19" y1="211.23" x2="287.93" y2="200.35"/>
    <line x1="246.19" y1="211.23" x2="312.56" y2="283.56"/>
    <line x1="413.70" y1="220.27" x2="366.00" y2="292.60"/>
    <line x1="413.70" y1="220.27" x2="320.77" y2="175.06"/>
    <line x1="413.70" y1="220.27" x2="462.61" y2="265.48"/>
    <line x1="80.07" y1="229.31" x2="87.27" y2="301.65"/>
    <line x1="80.07" y1="229.31" x2="157.45" y2="243.98"/>
    <line x1="80.07" y1="229.31" x2="173.83" y2="200.58"/>
    <line x1="405.96" y1="238.35" x2="338.14" y2="247.88"/>
    <line x1="405.96" y1="238.35" x2="350.63" y2="190.69"/>
    <line x1="405.96" y1="238.35" x2="442.57" y2="310.69"/>
    <line x1="405.96" y1="238.35" x2="339.62" y2="166.02"/>
    <line x1="261.08" y1="247.40" x2="232.51" y2="242.43"/>
    <line x1="261.08" y1="247.40" x2="267.79" y2="288.35"/>
    <line x1="261.08" y1="247.40" x2="297.06" y2="203.72"/>
    <line x1="261.08" y1="247.40" x2="197.45" y2="319.73"/>
    <line x1="145.75" y1="256.44" x2="175.62" y2="241.75"/>
    <line x1="145.75" y1="256.44" x2="154.52" y2="286.45"/>
    <line x1="145.75" y1="256.44" x2="207.28" y2="328.77"/>
    <line x1="462.61" y1="265.48" x2="428.40" y2="301.51"/>
    <line x1="462.61" y1="265.48" x2="413.30" y2="216.53"/>
    <line x1="462.61" y1="265.48" x2="398.52" y2="257.55"/>
    <line x1="462.61" y1="265.48" x2="414.73" y2="347.26"/>
    <line x1="110.47" y1="274.52" x2="97.34" y2="346.86"/>
    <line x1="110.47" y1="274.52" x2="197.45" y2="319.73"/>
    <line x1="110.47" y1="274.52" x2="80.07" y2="229.31"/>
    <line x1="312.56" y1="283.56" x2="338.14" y2="247.88"/>
    <line x1="312.56" y1="283.56" x2="244.45" y2="249.48"/>
    <line x1="312.56" y1="283.56" x2="287.93" y2="200.35"/>
    <line x1="366.00" y1="292.60" x2="315.42" y2="327.17"/>
    <line x1="366.00" y1="292.60" x2="298.73" y2="364.94"/>
    <line x1="366.00" y1="292.60" x2="267.79" y2="288.35"/>
    <line x1="87.27" y1="301.65" x2="154.52" y2="286.45"/>
    <line x1="87.27" y1="301.65" x2="157.45" y2="243.98"/>
    <line x1="87.27" y1="301.65" x2="140.14" y2="373.98"/>
    <line x1="442.57" y1="310.69" x2="428.40" y2="301.51"/>
    <line x1="442.57" y1="310.69" x2="398.52" y2="257.55"/>
    <line x1="442.57" y1="310.69" x2="414.73" y2="347.26"/>
    <line x1="197.45" y1="319.73" x2="267.79" y2="288.35"/>
    <line x1="197.45" y1="319.73" x2="232.51" y2="242.43"/>
    <line x1="197.45" y1="319.73" x2="167.26" y2="392.07"/>
    <line x1="207.28" y1="328.77" x2="244.45" y2="249.48"/>
    <line x1="207.28" y1="328.77" x2="270.70" y2="401.11"/>
    <line x1="207.28" y1="328.77" x2="217.72" y2="343.63"/>
    <line x1="431.27" y1="337.81" x2="414.73" y2="347.26"/>
    <line x1="431.27" y1="337.81" x2="369.68" y2="296.94"/>
    <line x1="431.27" y1="337.81" x2="462.61" y2="265.48"/>
    <line x1="431.27" y1="337.81" x2="360.52" y2="410.15"/>
    <line x1="97.34" y1="346.86" x2="145.90" y2="419.19"/>
    <line x1="97.34" y1="346.86" x2="167.26" y2="392.07"/>
    <line x1="97.34" y1="346.86" x2="87.27" y2="301.65"/>
    <line x1="364.32" y1="355.90" x2="349.49" y2="362.07"/>
    <line x1="364.32" y1="355.90" x2="312.56" y2="283.56"/>
    <line x1="364.32" y1="355.90" x2="270.70" y2="401.11"/>
    <line x1="364.32" y1="355.90" x2="359.96" y2="428.23"/>
    <line x1="298.73" y1="364.94" x2="315.42" y2="327.17"/>
    <line x1="298.73" y1="364.94" x2="267.79" y2="288.35"/>
    <line x1="298.73" y1="364.94" x2="360.52" y2="410.15"/>
    <line x1="140.14" y1="373.98" x2="217.72" y2="343.63"/>
    <line x1="140.14" y1="373.98" x2="154.52" y2="286.45"/>
    <line x1="140.14" y1="373.98" x2="145.90" y2="419.19"/>
    <line x1="427.63" y1="383.02" x2="414.73" y2="347.26"/>
    <line x1="427.63" y1="383.02" x2="428.40" y2="301.51"/>
    <line x1="427.63" y1="383.02" x2="359.96" y2="428.23"/>
    <line x1="427.63" y1="383.02" x2="442.57" y2="310.69"/>
    <line x1="167.26" y1="392.07" x2="252.27" y2="437.27"/>
    <line x1="167.26" y1="392.07" x2="213.63" y2="423.95"/>
    <line x1="270.70" y1="401.11" x2="247.13" y2="359.08"/>
    <line x1="270.70" y1="401.11" x2="226.39" y2="446.32"/>
    <line x1="360.52" y1="410.15" x2="315.42" y2="327.17"/>
    <line x1="360.52" y1="410.15" x2="326.51" y2="455.36"/>
    <line x1="145.90" y1="419.19" x2="213.63" y2="423.95"/>
    <line x1="145.90" y1="419.19" x2="226.39" y2="446.32"/>
    <line x1="359.96" y1="428.23" x2="325.23" y2="412.52"/>
    <line x1="359.96" y1="428.23" x2="349.49" y2="362.07"/>
    <line x1="359.96" y1="428.23" x2="326.51" y2="455.36"/>
    <line x1="252.27" y1="437.27" x2="270.00" y2="464.40"/>
    <line x1="252.27" y1="437.27" x2="213.63" y2="423.95"/>
    <line x1="252.27" y1="437.27" x2="298.73" y2="364.94"/>
    <line x1="226.39" y1="446.32" x2="213.63" y2="423.95"/>
    <line x1="226.39" y1="446.32" x2="270.00" y2="464.40"/>
    <line x1="226.39" y1="446.32" x2="247.13" y2="359.08"/>
    <line x1="326.51" y1="455.36" x2="270.00" y2="464.40"/>
    <line x1="326.51" y1="455.36" x2="325.23" y2="412.52"/>
    <line x1="270.00" y1="464.40" x2="213.63" y2="423.95"/>
    <line x1="270.00" y1="464.40" x2="325.23" y2="412.52"/>
    <line x1="288.86" y1="276.93" x2="301.84" y2="234.15"/>
    <line x1="288.86" y1="276.93" x2="299.29" y2="302.61"/>
    <line x1="288.86" y1="276.93" x2="279.51" y2="246.83"/>
    <line x1="288.86" y1="276.93" x2="338.14" y2="247.88"/>
    <line x1="359.40" y1="301.93" x2="369.68" y2="296.94"/>
    <line x1="359.40" y1="301.93" x2="398.52" y2="257.55"/>
    <line x1="359.40" y1="301.93" x2="428.40" y2="301.51"/>
    <line x1="359.40" y1="301.93" x2="414.73" y2="347.26"/>
    <line x1="294.15" y1="207.76" x2="297.06" y2="203.72"/>
    <line x1="294.15" y1="207.76" x2="234.08" y2="215.25"/>
    <line x1="294.15" y1="207.76" x2="232.51" y2="242.43"/>
    <line x1="262.55" y1="133.56" x2="241.50" y2="152.68"/>
    <line x1="262.55" y1="133.56" x2="229.37" y2="186.21"/>
    <line x1="299.29" y1="302.61" x2="279.51" y2="246.83"/>
    <line x1="299.29" y1="302.61" x2="247.13" y2="359.08"/>
    <line x1="299.29" y1="302.61" x2="349.49" y2="362.07"/>
    <line x1="428.40" y1="301.51" x2="414.73" y2="347.26"/>
    <line x1="428.40" y1="301.51" x2="398.52" y2="257.55"/>
    <line x1="180.29" y1="150.72" x2="173.83" y2="200.58"/>
    <line x1="180.29" y1="150.72" x2="241.50" y2="152.68"/>
    <line x1="180.29" y1="150.72" x2="229.37" y2="186.21"/>
    <line x1="217.72" y1="343.63" x2="247.13" y2="359.08"/>
    <line x1="217.72" y1="343.63" x2="186.50" y2="296.16"/>
    <line x1="217.72" y1="343.63" x2="237.35" y2="348.05"/>
    <line x1="217.72" y1="343.63" x2="154.52" y2="286.45"/>
    <line x1="413.30" y1="216.53" x2="398.52" y2="257.55"/>
    <line x1="413.30" y1="216.53" x2="381.56" y2="165.47"/>
    <line x1="154.52" y1="286.45" x2="157.45" y2="243.98"/>
    <line x1="154.52" y1="286.45" x2="186.50" y2="296.16"/>
    <line x1="154.52" y1="286.45" x2="175.62" y2="241.75"/>
    <line x1="213.63" y1="423.95" x2="256.33" y2="372.02"/>
    <line x1="234.08" y1="215.25" x2="173.83" y2="200.58"/>
    <line x1="234.08" y1="215.25" x2="297.06" y2="203.72"/>
    <line x1="234.08" y1="215.25" x2="241.50" y2="152.68"/>
    <line x1="338.14" y1="247.88" x2="301.84" y2="234.15"/>
    <line x1="338.14" y1="247.88" x2="287.93" y2="200.35"/>
    <line x1="241.50" y1="152.68" x2="229.37" y2="186.21"/>
    <line x1="301.84" y1="234.15" x2="287.93" y2="200.35"/>
    <line x1="301.84" y1="234.15" x2="279.51" y2="246.83"/>
    <line x1="349.49" y1="362.07" x2="325.23" y2="412.52"/>
    <line x1="237.35" y1="348.05" x2="256.33" y2="372.02"/>
    <line x1="237.35" y1="348.05" x2="213.63" y2="423.95"/>
    <line x1="237.35" y1="348.05" x2="247.13" y2="359.08"/>
    <line x1="279.51" y1="246.83" x2="229.37" y2="186.21"/>
    <line x1="287.93" y1="200.35" x2="244.45" y2="249.48"/>
    <line x1="157.45" y1="243.98" x2="175.62" y2="241.75"/>
    <line x1="157.45" y1="243.98" x2="186.50" y2="296.16"/>
    <line x1="315.42" y1="327.17" x2="267.79" y2="288.35"/>
    <line x1="315.42" y1="327.17" x2="280.78" y2="305.78"/>
    <line x1="175.62" y1="241.75" x2="186.50" y2="296.16"/>
    <line x1="414.73" y1="347.26" x2="369.68" y2="296.94"/>
    <line x1="369.68" y1="296.94" x2="428.40" y2="301.51"/>
    <line x1="369.68" y1="296.94" x2="398.52" y2="257.55"/>
    <line x1="280.78" y1="305.78" x2="267.79" y2="288.35"/>
    <line x1="280.78" y1="305.78" x2="237.35" y2="348.05"/>
    <line x1="280.78" y1="305.78" x2="256.33" y2="372.02"/>
    <line x1="381.56" y1="165.47" x2="350.63" y2="190.69"/>
    <line x1="297.06" y1="203.72" x2="232.51" y2="242.43"/>
    <line x1="297.06" y1="203.72" x2="267.79" y2="288.35"/>
    <line x1="232.51" y1="242.43" x2="267.79" y2="288.35"/>
    <line x1="173.83" y1="200.58" x2="157.45" y2="243.98"/>
    <line x1="244.45" y1="249.48" x2="288.86" y2="276.93"/>
    <line x1="244.45" y1="249.48" x2="301.84" y2="234.15"/>
    <line x1="256.33" y1="372.02" x2="247.13" y2="359.08"/>
    <line x1="256.33" y1="372.02" x2="217.72" y2="343.63"/>
    <line x1="350.63" y1="190.69" x2="301.84" y2="234.15"/>
  </g>
  <g>
    <circle cx="312.56" cy="283.56" r="3.35" fill="#fbe9c4" stroke="#F59E0B" stroke-width="0.9"/>
    <circle cx="246.19" cy="211.23" r="3.96" fill="#cdf2e2" stroke="#10B981" stroke-width="0.9"/>
    <circle cx="207.28" cy="328.77" r="3.49" fill="#cdf2e2" stroke="#10B981" stroke-width="0.9"/>
    <circle cx="244.45" cy="249.48" r="2.74" fill="#fde5cf" stroke="#F97316" stroke-width="0.9"/>
    <circle cx="145.75" cy="256.44" r="3.72" fill="#fbd5e6" stroke="#EC4899" stroke-width="0.9"/>
    <circle cx="339.62" cy="166.02" r="4.34" fill="#fde5cf" stroke="#F97316" stroke-width="0.9"/>
    <circle cx="364.32" cy="355.90" r="6.86" fill="#cdf2e2" stroke="#10B981" stroke-width="0.9"/>
    <circle cx="287.93" cy="200.35" r="2.88" fill="#fbe9c4" stroke="#F59E0B" stroke-width="0.9"/>
    <circle cx="338.14" cy="247.88" r="2.93" fill="#e0d4f8" stroke="#8B5CF6" stroke-width="0.9"/>
    <circle cx="270.70" cy="401.11" r="3.77" fill="#cfeff5" stroke="#06B6D4" stroke-width="0.9"/>
    <circle cx="405.96" cy="238.35" r="4.49" fill="#fbe9c4" stroke="#F59E0B" stroke-width="0.9"/>
    <circle cx="203.84" cy="138.89" r="3.92" fill="#e0d4f8" stroke="#8B5CF6" stroke-width="0.9"/>
    <circle cx="140.14" cy="373.98" r="4.17" fill="#dde6fa" stroke="#4F7FE8" stroke-width="0.9"/>
    <circle cx="301.84" cy="234.15" r="3.46" fill="#e0d4f8" stroke="#8B5CF6" stroke-width="0.9"/>
    <circle cx="175.62" cy="241.75" r="2.40" fill="#fbe9c4" stroke="#F59E0B" stroke-width="0.9"/>
    <circle cx="288.86" cy="276.93" r="2.88" fill="#dde6fa" stroke="#4F7FE8" stroke-width="0.9"/>
    <circle cx="119.11" cy="184.10" r="5.01" fill="#dde6fa" stroke="#4F7FE8" stroke-width="0.9"/>
    <circle cx="277.16" cy="93.68" r="4.34" fill="#dde6fa" stroke="#4F7FE8" stroke-width="0.9"/>
    <circle cx="442.57" cy="310.69" r="8.00" fill="#fbd5e6" stroke="#EC4899" stroke-width="0.9"/>
    <circle cx="349.49" cy="362.07" r="2.47" fill="#fbd5e6" stroke="#EC4899" stroke-width="0.9"/>
    <circle cx="247.13" cy="359.08" r="2.89" fill="#cfeff5" stroke="#06B6D4" stroke-width="0.9"/>
    <circle cx="154.52" cy="286.45" r="2.92" fill="#fbd5e6" stroke="#EC4899" stroke-width="0.9"/>
    <circle cx="350.63" cy="190.69" r="3.03" fill="#dde6fa" stroke="#4F7FE8" stroke-width="0.9"/>
    <circle cx="226.39" cy="446.32" r="3.72" fill="#dde6fa" stroke="#4F7FE8" stroke-width="0.9"/>
    <circle cx="217.72" cy="343.63" r="3.53" fill="#fde5cf" stroke="#F97316" stroke-width="0.9"/>
    <circle cx="359.96" cy="428.23" r="3.72" fill="#dde6fa" stroke="#4F7FE8" stroke-width="0.9"/>
    <circle cx="375.16" cy="120.81" r="4.48" fill="#fbe9c4" stroke="#F59E0B" stroke-width="0.9"/>
    <circle cx="87.27" cy="301.65" r="4.56" fill="#dde6fa" stroke="#4F7FE8" stroke-width="0.9"/>
    <circle cx="229.37" cy="186.21" r="3.57" fill="#fbe9c4" stroke="#F59E0B" stroke-width="0.9"/>
    <circle cx="299.29" cy="302.61" r="3.66" fill="#dde6fa" stroke="#4F7FE8" stroke-width="0.9"/>
    <circle cx="262.55" cy="133.56" r="2.53" fill="#e0d4f8" stroke="#8B5CF6" stroke-width="0.9"/>
    <circle cx="157.45" cy="243.98" r="2.46" fill="#dde6fa" stroke="#4F7FE8" stroke-width="0.9"/>
    <circle cx="325.23" cy="412.52" r="3.15" fill="#cfeff5" stroke="#06B6D4" stroke-width="0.9"/>
    <circle cx="186.50" cy="296.16" r="3.51" fill="#fbd5e6" stroke="#EC4899" stroke-width="0.9"/>
    <circle cx="444.40" cy="193.14" r="5.54" fill="#dde6fa" stroke="#4F7FE8" stroke-width="0.9"/>
    <circle cx="279.51" cy="246.83" r="3.81" fill="#fbe9c4" stroke="#F59E0B" stroke-width="0.9"/>
    <circle cx="398.52" cy="257.55" r="2.65" fill="#fbe9c4" stroke="#F59E0B" stroke-width="0.9"/>
    <circle cx="381.56" cy="165.47" r="3.89" fill="#fbd5e6" stroke="#EC4899" stroke-width="0.9"/>
    <circle cx="241.50" cy="152.68" r="3.05" fill="#cdf2e2" stroke="#10B981" stroke-width="0.9"/>
    <circle cx="158.79" cy="111.77" r="9.02" fill="#dde6fa" stroke="#4F7FE8" stroke-width="0.9"/>
    <circle cx="180.29" cy="150.72" r="2.96" fill="#cdf2e2" stroke="#10B981" stroke-width="0.9"/>
    <circle cx="427.63" cy="383.02" r="9.13" fill="#e0d4f8" stroke="#8B5CF6" stroke-width="0.9"/>
    <circle cx="413.30" cy="216.53" r="2.83" fill="#e0d4f8" stroke="#8B5CF6" stroke-width="0.9"/>
    <circle cx="145.90" cy="419.19" r="4.99" fill="#dde6fa" stroke="#4F7FE8" stroke-width="0.9"/>
    <circle cx="428.40" cy="301.51" r="3.96" fill="#e0d4f8" stroke="#8B5CF6" stroke-width="0.9"/>
    <circle cx="213.63" cy="423.95" r="3.21" fill="#cfeff5" stroke="#06B6D4" stroke-width="0.9"/>
    <circle cx="270.00" cy="75.60" r="5.10" fill="#dde6fa" stroke="#4F7FE8" stroke-width="0.9"/>
    <circle cx="270.00" cy="464.40" r="4.25" fill="#cfeff5" stroke="#06B6D4" stroke-width="0.9"/>
    <circle cx="359.40" cy="301.93" r="4.21" fill="#fde5cf" stroke="#F97316" stroke-width="0.9"/>
    <circle cx="414.73" cy="347.26" r="3.87" fill="#fde5cf" stroke="#F97316" stroke-width="0.9"/>
    <circle cx="237.35" cy="348.05" r="3.10" fill="#fbd5e6" stroke="#EC4899" stroke-width="0.9"/>
    <circle cx="256.33" cy="372.02" r="4.25" fill="#fbd5e6" stroke="#EC4899" stroke-width="0.9"/>
    <circle cx="80.07" cy="229.31" r="6.03" fill="#cfeff5" stroke="#06B6D4" stroke-width="0.9"/>
    <circle cx="326.51" cy="455.36" r="4.37" fill="#fbd5e6" stroke="#EC4899" stroke-width="0.9"/>
    <circle cx="173.83" cy="200.58" r="3.38" fill="#cfeff5" stroke="#06B6D4" stroke-width="0.9"/>
    <circle cx="462.61" cy="265.48" r="5.34" fill="#cdf2e2" stroke="#10B981" stroke-width="0.9"/>
    <circle cx="369.68" cy="296.94" r="3.43" fill="#dde6fa" stroke="#4F7FE8" stroke-width="0.9"/>
    <circle cx="226.79" cy="84.64" r="5.47" fill="#cfeff5" stroke="#06B6D4" stroke-width="0.9"/>
    <circle cx="234.08" cy="215.25" r="3.59" fill="#e0d4f8" stroke="#8B5CF6" stroke-width="0.9"/>
    <circle cx="97.34" cy="346.86" r="5.52" fill="#cdf2e2" stroke="#10B981" stroke-width="0.9"/>
    <circle cx="412.12" cy="147.93" r="9.30" fill="#cfeff5" stroke="#06B6D4" stroke-width="0.9"/>
    <circle cx="123.80" cy="156.98" r="4.72" fill="#dde6fa" stroke="#4F7FE8" stroke-width="0.9"/>
    <circle cx="280.78" cy="305.78" r="3.09" fill="#fde5cf" stroke="#F97316" stroke-width="0.9"/>
    <circle cx="330.27" cy="102.73" r="11.66" fill="#dde6fa" stroke="#4F7FE8" stroke-width="0.9"/>
    <circle cx="431.27" cy="337.81" r="12.75" fill="#cdf2e2" stroke="#10B981" stroke-width="0.9"/>
    <circle cx="252.27" cy="437.27" r="5.00" fill="#fbe9c4" stroke="#F59E0B" stroke-width="0.9"/>
    <circle cx="360.52" cy="410.15" r="10.04" fill="#fbe9c4" stroke="#F59E0B" stroke-width="0.9"/>
    <circle cx="294.15" cy="207.76" r="5.01" fill="#fde5cf" stroke="#F97316" stroke-width="0.9"/>
    <circle cx="110.47" cy="274.52" r="6.13" fill="#e0d4f8" stroke="#8B5CF6" stroke-width="0.9"/>
    <circle cx="167.26" cy="392.07" r="7.15" fill="#fbe9c4" stroke="#F59E0B" stroke-width="0.9"/>
    <circle cx="297.06" cy="203.72" r="4.29" fill="#e0d4f8" stroke="#8B5CF6" stroke-width="0.9"/>
    <circle cx="413.70" cy="220.27" r="7.26" fill="#e0d4f8" stroke="#8B5CF6" stroke-width="0.9"/>
    <circle cx="235.03" cy="129.85" r="6.30" fill="#cfeff5" stroke="#06B6D4" stroke-width="0.9"/>
    <circle cx="315.42" cy="327.17" r="4.32" fill="#fbd5e6" stroke="#EC4899" stroke-width="0.9"/>
    <circle cx="267.79" cy="288.35" r="4.18" fill="#fbd5e6" stroke="#EC4899" stroke-width="0.9"/>
    <circle cx="165.22" cy="202.19" r="7.56" fill="#cdf2e2" stroke="#10B981" stroke-width="0.9"/>
    <circle cx="232.51" cy="242.43" r="5.05" fill="#e0d4f8" stroke="#8B5CF6" stroke-width="0.9"/>
    <circle cx="320.77" cy="175.06" r="7.70" fill="#fbd5e6" stroke="#EC4899" stroke-width="0.9"/>
    <circle cx="298.73" cy="364.94" r="6.65" fill="#fde5cf" stroke="#F97316" stroke-width="0.9"/>
    <circle cx="366.00" cy="292.60" r="13.30" fill="#fde5cf" stroke="#F97316" stroke-width="0.9"/>
    <circle cx="197.45" cy="319.73" r="6.71" fill="#cdf2e2" stroke="#10B981" stroke-width="0.9"/>
    <circle cx="261.08" cy="247.40" r="16.07" fill="#dde6fa" stroke="#4F7FE8" stroke-width="0.9"/>
  </g>
  <g fill="#555" text-anchor="middle" font-weight="500" font-size="9.5">
    <text x="339.62" y="181.36" font-size="9.5" font-weight="500" fill="#555">API</text>
    <text x="364.32" y="373.76" font-size="11" font-weight="600" fill="#111">collection-service</text>
    <text x="405.96" y="253.84" font-size="9.5" font-weight="500" fill="#555">API</text>
    <text x="140.14" y="389.15" font-size="9.5" font-weight="500" fill="#555">API</text>
    <text x="119.11" y="200.11" font-size="9.5" font-weight="500" fill="#555">API</text>
    <text x="277.16" y="109.03" font-size="9.5" font-weight="500" fill="#555">API</text>
    <text x="442.57" y="329.68" font-size="11" font-weight="600" fill="#111">payment-service</text>
    <text x="375.16" y="136.29" font-size="9.5" font-weight="500" fill="#555">DB</text>
    <text x="87.27" y="317.21" font-size="9.5" font-weight="500" fill="#555">API</text>
    <text x="444.40" y="209.68" font-size="9.5" font-weight="500" fill="#555">API</text>
    <text x="158.79" y="131.78" font-size="11" font-weight="600" fill="#111">user-service</text>
    <text x="427.63" y="403.15" font-size="11" font-weight="600" fill="#111">monitor-service</text>
    <text x="145.90" y="435.18" font-size="9.5" font-weight="500" fill="#555">API</text>
    <text x="270.00" y="91.70" font-size="9.5" font-weight="500" fill="#555">DB</text>
    <text x="270.00" y="479.65" font-size="9.5" font-weight="500" fill="#555">API</text>
    <text x="80.07" y="246.35" font-size="9.5" font-weight="500" fill="#555">API</text>
    <text x="326.51" y="470.73" font-size="9.5" font-weight="500" fill="#555">DB</text>
    <text x="462.61" y="281.82" font-size="9.5" font-weight="500" fill="#555">DB</text>
    <text x="226.79" y="101.11" font-size="9.5" font-weight="500" fill="#555">DB</text>
    <text x="97.34" y="363.38" font-size="9.5" font-weight="500" fill="#555">DB</text>
    <text x="412.12" y="168.24" font-size="11" font-weight="600" fill="#111">flows-service</text>
    <text x="123.80" y="172.69" font-size="9.5" font-weight="500" fill="#555">API</text>
    <text x="330.27" y="125.38" font-size="11" font-weight="600" fill="#111">auth-service</text>
    <text x="431.27" y="361.56" font-size="11" font-weight="600" fill="#111">workspace-service</text>
    <text x="252.27" y="453.28" font-size="9.5" font-weight="500" fill="#555">API</text>
    <text x="360.52" y="431.19" font-size="11" font-weight="600" fill="#111">insights-service</text>
    <text x="110.47" y="291.65" font-size="9.5" font-weight="500" fill="#555">API</text>
    <text x="167.26" y="410.21" font-size="9.5" font-weight="500" fill="#555">MCP</text>
    <text x="413.70" y="238.53" font-size="9.5" font-weight="500" fill="#555">API</text>
    <text x="235.03" y="147.16" font-size="9.5" font-weight="500" fill="#555">API</text>
    <text x="165.22" y="220.75" font-size="9.5" font-weight="500" fill="#555">API</text>
    <text x="320.77" y="193.76" font-size="9.5" font-weight="500" fill="#555">API</text>
    <text x="298.73" y="382.59" font-size="9.5" font-weight="500" fill="#555">MCP</text>
    <text x="366.00" y="316.91" font-size="11" font-weight="600" fill="#111">api-catalog-service</text>
    <text x="197.45" y="337.44" font-size="9.5" font-weight="500" fill="#555">DB</text>
    <text x="261.08" y="274.46" font-size="11" font-weight="600" fill="#111">bifrost-gateway</text>
  </g>
</svg>
